<?xml version="1.0" encoding="UTF-8" standalone="no"?>
<!DOCTYPE svg PUBLIC "-//W3C//DTD SVG 1.1//EN" "http://www.w3.org/Graphics/SVG/1.1/DTD/svg11.dtd">
<svg width="100%" height="100%" viewBox="0 0 1000 1000" version="1.1" xmlns="http://www.w3.org/2000/svg" xmlns:xlink="http://www.w3.org/1999/xlink" xml:space="preserve" xmlns:serif="http://www.serif.com/" style="fill-rule:evenodd;clip-rule:evenodd;stroke-linejoin:round;stroke-miterlimit:2;">
    <path d="M150.094,354.918C151.959,355.456 153.811,356.005 155.664,356.519C155.759,347.041 156.022,337.503 158.066,328.228C159.381,322.24 161.759,311.806 162.536,312.69C162.68,324.726 161.986,336.75 161.7,348.798C160.911,367.348 161.7,385.922 161.186,404.484C160.851,409.755 160.851,415.253 158.819,420.225C157.014,423.798 152.496,424.312 148.923,424.635C138.429,424.982 127.779,423.105 118.229,418.671C128.64,414.906 139.911,417.906 150.488,415.265C154.397,414.464 155.616,410.197 155.735,406.731C156.261,398.005 155.676,389.268 155.891,380.543C155.891,375.368 156.282,370.182 155.759,365.017C155.353,361.003 152.186,358.145 150.094,354.918ZM165.943,282.033C168.19,269.65 171.357,257.459 175.122,245.459C175.947,242.112 182.423,229.102 183.463,225.098C184.841,219.792 188.401,215.053 189.154,207.021C189.578,204.683 191.536,196.875 194.34,190.262C193.29,193.672 193.213,197.335 193.098,200.889C193.005,209.581 184.234,275.616 179.747,340.866C176.177,392.797 176.638,445.695 176.855,458.233C177.345,475.898 180.417,493.337 182.425,510.858C183.823,519.452 176.927,527.03 178.947,535.647C180.704,543.703 184.624,551.173 189.094,558.034C198.823,570.799 213.668,578.484 228.716,583.181C242.76,588.608 257.664,590.927 272.449,593.257C290.031,597.022 300.209,596.775 319.605,598.415C329.705,599.268 346.17,600.883 356.27,601.564C365.485,602.317 372.242,602.693 382.799,603.476C385.701,603.691 387.774,603.795 389.557,603.863C392.607,603.979 394.81,603.988 398.871,604.264C400.451,604.372 402.312,604.52 404.614,604.731C410.672,605.286 422.318,604.935 425.629,608.174C416.33,608.974 406.995,608.413 397.673,608.7C361.015,609.668 324.358,609.058 287.688,609.118C282.644,609.225 277.445,609.01 272.581,610.6C270.931,611.054 269.739,612.399 269.043,613.935C266.995,618.449 266.329,623.461 266.102,628.385C266.365,651.154 269.306,674.234 277.84,695.485C281.927,708.07 285.035,721.17 291.824,732.68C298.816,743.652 308.031,754.266 320.939,758.15C343.087,764.76 366.489,762.836 389.258,764.891C426.17,764.947 463.085,764.95 500,764.95C536.915,764.95 573.83,764.947 610.742,764.891C633.511,762.836 656.913,764.76 679.061,758.15C691.969,754.266 701.184,743.652 708.176,732.68C714.965,721.17 718.073,708.07 722.16,695.485C730.694,674.234 733.635,651.154 733.898,628.385C733.671,623.461 733.005,618.449 730.957,613.935C730.261,612.399 729.069,611.054 727.419,610.6C722.555,609.01 717.356,609.225 712.312,609.118C675.642,609.058 638.985,609.668 602.327,608.7C593.005,608.413 583.67,608.974 574.371,608.174C577.682,604.935 589.328,605.286 595.386,604.731C597.688,604.52 599.549,604.372 601.129,604.264C605.19,603.988 607.393,603.979 610.443,603.863C612.226,603.795 614.299,603.691 617.201,603.476C627.758,602.693 634.515,602.317 643.73,601.564C653.83,600.883 670.295,599.268 680.395,598.415C699.791,596.775 709.969,597.022 727.551,593.257C742.336,590.927 757.24,588.608 771.284,583.181C786.332,578.484 801.177,570.799 810.906,558.034C815.376,551.173 819.296,543.703 821.053,535.647C823.073,527.03 816.177,519.452 817.575,510.858C819.583,493.337 822.655,475.898 823.145,458.233C823.362,445.695 823.823,392.797 820.253,340.866C815.766,275.616 806.995,209.581 806.902,200.889C806.787,197.335 806.71,193.672 805.66,190.262C808.464,196.875 810.422,204.683 810.846,207.021C811.599,215.053 815.159,219.792 816.537,225.098C817.577,229.102 824.053,242.112 824.878,245.459C828.643,257.459 831.81,269.65 834.057,282.033C833.998,285.057 833.747,288.081 833.519,291.105C830.412,281.937 832.073,270.714 824.555,263.507C822.009,278.901 824.197,294.475 824.723,309.941C825.966,322.539 824.866,335.208 826.097,347.794C827.233,364.683 826.181,381.619 826.623,398.519C827.496,412.922 831.105,427.049 831.631,441.488C832.145,454.659 833.257,467.807 833.95,480.966C834.595,492.5 837.404,503.998 836.041,515.58C835.647,519.416 834.392,523.181 834.643,527.066C836.137,530.496 839.065,533.006 841.408,535.851C847.288,542.46 851.185,550.624 853.432,559.134C845.854,559.074 838.072,558.653 830.782,561.046C823.801,563.338 818.543,568.899 814.205,574.588C806.866,584.891 805.073,597.859 804.081,610.158C803.914,613.731 803.794,618.106 806.854,620.592C809.519,622.277 812.782,622.492 815.83,622.923C829.743,624.321 843.739,623.221 857.699,623.616C857.555,636.728 857.472,649.947 855.081,662.879C853.42,656.879 853.157,650.652 852.452,644.508C852.452,640.851 849.786,638.281 847.217,636.106C845.615,639.548 844.504,643.241 844.456,647.066C843.727,664.182 843.631,681.333 843.643,698.473C844.659,720.417 843.033,742.373 841.253,764.246C840.452,772.78 836.759,781.875 829.145,786.465C820.049,791.115 809.519,791.325 799.539,791.33C785.591,791.336 771.655,791.342 757.718,791.366C746.531,791.33 735.404,792.621 724.228,792.465C714.654,792.274 705.141,793.597 695.579,793.672C680.137,793.794 664.67,793.29 649.252,794.401C637.216,795.202 625.132,794.7 613.084,794.832C595.55,794.987 578.017,795.083 560.495,795.107C545.745,794.748 531.008,796.015 516.271,795.25C510.847,795.016 505.423,795.086 500,795.227C494.577,795.086 489.153,795.016 483.729,795.25C468.992,796.015 454.255,794.748 439.505,795.107C421.983,795.083 404.45,794.987 386.916,794.832C374.868,794.7 362.784,795.202 350.748,794.401C335.33,793.29 319.863,793.794 304.421,793.672C294.859,793.597 285.346,792.274 275.772,792.465C264.596,792.621 253.469,791.33 242.282,791.366C228.345,791.342 214.409,791.336 200.461,791.33C190.481,791.325 179.951,791.115 170.855,786.465C163.241,781.875 159.548,772.78 158.747,764.246C156.967,742.373 155.341,720.417 156.357,698.473C156.369,681.333 156.273,664.182 155.544,647.066C155.496,643.241 154.385,639.548 152.783,636.106C150.214,638.281 147.548,640.851 147.548,644.508C146.843,650.652 146.58,656.879 144.919,662.879C142.528,649.947 142.445,636.728 142.301,623.616C156.261,623.221 170.257,624.321 184.17,622.923C187.218,622.492 190.481,622.277 193.146,620.592C196.206,618.106 196.086,613.731 195.919,610.158C194.927,597.859 193.134,584.891 185.795,574.588C181.457,568.899 176.199,563.338 169.218,561.046C161.928,558.653 154.146,559.074 146.568,559.134C148.815,550.624 152.712,542.46 158.592,535.851C160.935,533.006 163.863,530.496 165.357,527.066C165.608,523.181 164.353,519.416 163.959,515.58C162.596,503.998 165.405,492.5 166.05,480.966C166.743,467.807 167.855,454.659 168.369,441.488C168.895,427.049 172.504,412.922 173.377,398.519C173.819,381.619 172.767,364.683 173.903,347.794C175.134,335.208 174.034,322.539 175.277,309.941C175.803,294.475 177.991,278.901 175.445,263.507C167.927,270.714 169.588,281.937 166.481,291.105C166.253,288.081 166.002,285.057 165.943,282.033ZM777.368,667.026C760.479,671.401 748.694,690.333 752.698,707.437C755.651,717.011 761.902,725.724 770.543,730.935C777.117,734.855 785.089,733.971 792.416,733.959C799.551,734.162 805.539,729.572 810.559,725.031C818.268,717.584 820.647,706.385 819.762,696.035C819.918,686.186 815.233,676.301 807.093,670.672C798.368,664.923 787.228,665.927 777.368,667.026ZM222.632,667.026C212.772,665.927 201.632,664.923 192.907,670.672C184.767,676.301 180.082,686.186 180.238,696.035C179.353,706.385 181.732,717.584 189.441,725.031C194.461,729.572 200.449,734.162 207.584,733.959C214.911,733.971 222.883,734.855 229.457,730.935C238.098,725.724 244.349,717.011 247.302,707.437C251.306,690.333 239.521,671.401 222.632,667.026ZM500,775.991C487.405,775.964 474.809,775.944 462.215,775.959C436.709,775.899 411.191,776.055 385.685,775.648C369.764,775.027 353.832,775.146 337.911,774.824C312.429,773.736 286.923,774.166 261.417,773.844C256.086,773.688 250.529,773.724 245.676,776.282C246.262,780.609 248.138,785.999 253.337,786.238C265.577,786.991 277.875,786.035 290.138,786.549C294.668,786.788 299.2,787.535 303.74,787.003C309.552,786.321 315.334,787.35 321.131,787.624C353.413,787.923 433.9,786.68 441.932,787.577C461.285,787.847 480.642,787.846 500,787.801C519.358,787.846 538.715,787.847 558.068,787.577C566.1,786.68 646.587,787.923 678.869,787.624C684.666,787.35 690.448,786.321 696.26,787.003C700.8,787.535 705.332,786.788 709.862,786.549C722.125,786.035 734.423,786.991 746.663,786.238C751.862,785.999 753.738,780.609 754.324,776.282C749.471,773.724 743.914,773.688 738.583,773.844C713.077,774.166 687.571,773.736 662.089,774.824C646.168,775.146 630.236,775.027 614.315,775.648C588.809,776.055 563.291,775.899 537.785,775.959C525.191,775.944 512.595,775.964 500,775.991ZM837.464,312.69C838.241,311.806 840.619,322.24 841.934,328.228C843.978,337.503 844.241,347.041 844.336,356.519C846.189,356.005 848.041,355.456 849.906,354.918C847.814,358.145 844.647,361.003 844.241,365.017C843.718,370.182 844.109,375.368 844.109,380.543C844.324,389.268 843.739,398.005 844.265,406.731C844.384,410.197 845.603,414.464 849.512,415.265C860.089,417.906 871.36,414.906 881.771,418.671C872.221,423.105 861.571,424.982 851.077,424.635C847.504,424.312 842.986,423.798 841.181,420.225C839.149,415.253 839.149,409.755 838.814,404.484C838.3,385.922 839.089,367.348 838.3,348.798C838.014,336.75 837.32,324.726 837.464,312.69ZM844.085,435.93C849.129,435.775 854.197,435.786 859.253,435.918C860.794,444.87 859.802,453.978 860.042,463.014C860.293,482.544 859.348,502.133 861.105,521.627C861.536,531.165 861.404,540.787 859.97,550.253C856.528,544.647 853.779,538.659 850.241,533.114C848.089,529.528 845.555,525.799 845.591,521.46C845.496,516.715 845.962,511.946 845.34,507.225C843.547,495.751 844.551,484.097 843.129,472.599C843.261,460.384 842.006,448.026 844.085,435.93ZM155.915,435.93C157.994,448.026 156.739,460.384 156.871,472.599C155.449,484.097 156.453,495.751 154.66,507.225C154.038,511.946 154.504,516.715 154.409,521.46C154.445,525.799 151.911,529.528 149.759,533.114C146.221,538.659 143.472,544.647 140.03,550.253C138.596,540.787 138.464,531.165 138.895,521.627C140.652,502.133 139.707,482.544 139.958,463.014C140.198,453.978 139.206,444.87 140.747,435.918C145.803,435.786 150.871,435.775 155.915,435.93ZM791.08,408.623C791.413,408.601 791.74,408.579 792.062,408.557C792.057,408.619 792.05,408.682 792.042,408.745C791.729,408.766 791.412,408.787 791.091,408.808C791.462,415.009 791.925,419.438 791.675,425.292C761.22,425.89 730.658,425.526 700.288,425.472C688.515,424.686 677.188,424.404 665.732,424.229C650.985,424.307 636.228,424.655 621.535,423.32C604.849,422.639 588.14,423.643 571.479,422.83C560.279,421.468 549.008,422.065 537.785,421.922C525.19,421.922 512.595,421.922 500,421.922C487.405,421.922 474.81,421.922 462.215,421.922C450.992,422.065 439.721,421.468 428.521,422.83C411.86,423.643 395.151,422.639 378.465,423.32C363.772,424.655 349.015,424.307 334.268,424.229C322.812,424.404 311.485,424.686 299.712,425.472C269.342,425.526 238.78,425.89 208.325,425.292C208.075,419.438 208.538,415.009 208.909,408.808C208.588,408.787 208.271,408.766 207.958,408.745C207.95,408.682 207.943,408.619 207.938,408.557C208.26,408.579 208.587,408.601 208.92,408.623C215.515,409.066 224.108,409.563 230.329,409.515C239.126,409.448 247.863,410.615 256.636,410.699C282.62,410.759 308.605,410.388 334.577,411.069C345.25,410.926 355.935,410.448 366.609,411.296C394.864,411.858 423.179,410.998 451.41,412.695C463.398,412.826 475.374,413.591 487.362,413.34C491.577,413.295 495.789,413.373 500,413.5C504.211,413.373 508.423,413.295 512.638,413.34C524.626,413.591 536.602,412.826 548.59,412.695C576.821,410.998 605.136,411.858 633.391,411.296C644.065,410.448 654.75,410.926 665.423,411.069C691.395,410.388 717.38,410.759 743.364,410.699C752.137,410.615 760.874,409.448 769.671,409.515C775.892,409.563 784.485,409.066 791.08,408.623ZM232.517,206.734C234.274,201.487 234.678,195.953 234.895,190.467C235.204,182.662 238.265,175.375 239.497,167.722C240.154,163.636 241.409,159.642 243.62,156.116C247.206,169.192 240.345,182.758 244.003,195.929C247.78,196.144 251.58,196.562 255.333,196.013C259.194,195.296 262.576,193.192 266.222,191.853C283.409,186.164 300.991,181.849 318.417,177.044C339.214,172.73 360.095,169.048 381.214,166.73C393.501,165.546 405.561,162.14 417.991,162.594C427.995,163.048 437.88,160.993 447.872,161.327C453.812,161.399 459.753,161.375 465.681,161.005C477.102,160.021 488.55,160.099 500,160.21C511.45,160.099 522.898,160.021 534.319,161.005C540.247,161.375 546.188,161.399 552.128,161.327C562.12,160.993 572.005,163.048 582.009,162.594C594.439,162.14 606.499,165.546 618.786,166.73C639.905,169.048 660.786,172.73 681.583,177.044C699.009,181.849 716.591,186.164 733.778,191.853C737.424,193.192 740.806,195.296 744.667,196.013C748.42,196.562 752.22,196.144 755.997,195.929C759.655,182.758 752.794,169.192 756.38,156.116C758.591,159.642 759.846,163.636 760.503,167.722C761.735,175.375 764.796,182.662 765.105,190.467C765.322,195.953 765.726,201.487 767.483,206.734C764.687,205.491 761.854,204.296 758.854,203.686C746.519,201.391 734.017,200.232 721.551,199.06C723.26,198.989 724.981,198.905 726.714,198.786C717.989,191.578 706.455,189.451 695.591,187.742C686.722,186.63 678.081,184.12 669.164,183.236C657.224,182.124 645.439,179.519 633.403,179.399C623.794,179.363 614.327,177.463 604.742,176.985C593.172,176.519 581.638,175.308 570.056,175.742C556.073,176.266 542.196,173.925 528.224,174.499C518.82,174.666 509.409,174.574 500,174.495C490.591,174.574 481.18,174.666 471.776,174.499C457.804,173.925 443.927,176.266 429.944,175.742C418.362,175.308 406.828,176.519 395.258,176.985C385.673,177.463 376.206,179.363 366.597,179.399C354.561,179.519 342.776,182.124 330.836,183.236C321.919,184.12 313.278,186.63 304.409,187.742C293.545,189.451 282.011,191.578 273.286,198.786C275.019,198.905 276.74,198.989 278.449,199.06C265.983,200.232 253.481,201.391 241.146,203.686C238.146,204.296 235.313,205.491 232.517,206.734ZM500,720.438C440.791,720.438 381.581,720.441 322.374,720.441C317.198,720.393 311.999,720.835 306.836,720.238C304.338,720.047 302.257,718.272 301.194,716.078C299.313,712.196 298.146,708.023 296.234,704.162C291.202,694.325 289.302,683.329 285.62,672.991C279.369,657.046 278.688,639.154 282.549,622.552C283.29,619.206 287.533,620.186 290.019,619.815C360.014,619.846 430.008,619.882 500,619.865C569.992,619.882 639.986,619.846 709.981,619.815C712.467,620.186 716.71,619.206 717.451,622.552C721.312,639.154 720.631,657.046 714.38,672.991C710.698,683.329 708.798,694.325 703.766,704.162C701.854,708.023 700.687,712.196 698.806,716.078C697.743,718.272 695.662,720.047 693.164,720.238C688.001,720.835 682.802,720.393 677.626,720.441C618.419,720.441 559.209,720.438 500,720.438ZM757.766,451.097C766.348,448.802 775.36,449.663 784.049,450.846C792.464,452.089 798.201,459.225 802.695,465.834C810.009,476.723 809.125,490.779 806.472,503.042C804.834,510.094 805.599,517.755 802.252,524.365C799.599,529.289 796.061,534.237 790.563,536.149C789.452,528.536 786.989,521.102 786.643,513.416C787.862,509.233 791.806,506.592 794.304,503.173C800.4,496.265 801.105,486.416 800.137,477.667C798.153,468.069 791.28,458.603 781.36,456.32C773.663,455.46 765.882,456.524 758.196,455.364C758.041,453.93 757.898,452.508 757.766,451.097ZM733.037,477.093C735.272,478.133 738.165,479.018 738.81,481.779C739.647,486.141 737.949,490.839 739.945,494.998C743.292,502.384 749.627,508.002 756.523,512.03C762.822,515.52 770.543,513.643 776.973,516.655C779.448,522.285 779.519,528.62 780.009,534.667C780.009,538.898 780.655,543.5 778.671,547.408C776.627,551.042 772.169,551.675 768.547,552.775C766.336,543.93 767.603,534.643 765.535,525.835C759.858,518.424 750.057,515.329 740.985,515.364C734.973,515.113 728.543,517.086 722.842,514.408C720.559,512.735 721.635,509.759 722.388,507.596C726.332,497.556 727.635,486.572 733.037,477.093ZM242.234,451.097C242.102,452.508 241.959,453.93 241.804,455.364C234.118,456.524 226.337,455.46 218.64,456.32C208.72,458.603 201.847,468.069 199.863,477.667C198.895,486.416 199.6,496.265 205.696,503.173C208.194,506.592 212.138,509.233 213.357,513.416C213.011,521.102 210.548,528.536 209.437,536.149C203.939,534.237 200.401,529.289 197.748,524.365C194.401,517.755 195.166,510.094 193.528,503.042C190.875,490.779 189.991,476.723 197.305,465.834C201.799,459.225 207.536,452.089 215.951,450.846C224.64,449.663 233.652,448.802 242.234,451.097ZM266.963,477.093C272.365,486.572 273.668,497.556 277.612,507.596C278.365,509.759 279.441,512.735 277.158,514.408C271.457,517.086 265.027,515.113 259.015,515.364C249.943,515.329 240.142,518.424 234.465,525.835C232.397,534.643 233.664,543.93 231.453,552.775C227.831,551.675 223.373,551.042 221.329,547.408C219.345,543.5 219.991,538.898 219.991,534.667C220.481,528.62 220.552,522.285 223.027,516.655C229.457,513.643 237.178,515.52 243.477,512.03C250.373,508.002 256.708,502.384 260.055,494.998C262.051,490.839 260.353,486.141 261.19,481.779C261.835,479.018 264.728,478.133 266.963,477.093ZM500,596.459C493.371,596.457 486.743,596.42 480.119,596.305C470.486,595.444 460.806,597.084 451.183,595.911C441.598,594.742 431.916,595.839 422.306,594.811C405.788,592.946 389.103,595.193 372.585,593.15C357.262,592.719 341.963,591.536 326.724,589.899C315.609,589.265 304.78,586.421 293.64,586.05C273.501,583.421 253.481,579.464 233.927,573.966C218.544,570.369 205.254,559.922 196.337,547.098C197.783,547.002 199.421,546.572 200.556,547.731C203.975,550.241 206.819,553.516 210.584,555.524C227.425,564.01 245.808,568.887 264.333,572.03C276.166,573.978 287.604,578.042 299.64,578.711C317.103,580.958 334.601,583.564 352.254,583.373C363.059,583.337 373.696,585.68 384.501,585.703C405.621,585.691 426.74,586.086 447.86,586.48C457.446,586.624 466.972,585.154 476.557,585.345C484.372,585.421 492.186,585.398 500,585.376C507.814,585.398 515.628,585.421 523.443,585.345C533.028,585.154 542.554,586.624 552.14,586.48C573.26,586.086 594.379,585.691 615.499,585.703C626.304,585.68 636.941,583.337 647.746,583.373C665.399,583.564 682.897,580.958 700.36,578.711C712.396,578.042 723.834,573.978 735.667,572.03C754.192,568.887 772.575,564.01 789.416,555.524C793.181,553.516 796.025,550.241 799.444,547.731C800.579,546.572 802.217,547.002 803.663,547.098C794.746,559.922 781.456,570.369 766.073,573.966C746.519,579.464 726.499,583.421 706.36,586.05C695.22,586.421 684.391,589.265 673.276,589.899C658.037,591.536 642.738,592.719 627.415,593.15C610.897,595.193 594.212,592.946 577.694,594.811C568.084,595.839 558.402,594.742 548.817,595.911C539.194,597.084 529.514,595.444 519.881,596.305C513.257,596.42 506.629,596.457 500,596.459ZM500,575.227C476.644,575.225 453.288,575.221 429.932,575.257C403.744,575.377 377.545,574.731 351.382,573.476C341.366,572.759 331.386,571.504 321.477,569.903C318.334,569.448 315.154,568.062 313.445,565.253C307.947,556.851 305.401,547.026 301.338,537.942C292.887,519.608 287.138,500.173 278.545,481.898C283.445,481.205 288.441,481.325 293.21,482.687C304.887,485.747 316.995,486.416 328.816,488.699C358.35,492.643 387.896,496.743 417.669,498.368C444.975,501.708 472.487,501.038 500,501.121C527.513,501.038 555.025,501.708 582.331,498.368C612.104,496.743 641.65,492.643 671.184,488.699C683.005,486.416 695.113,485.747 706.79,482.687C711.559,481.325 716.555,481.205 721.455,481.898C712.862,500.173 707.113,519.608 698.662,537.942C694.599,547.026 692.053,556.851 686.555,565.253C684.846,568.062 681.666,569.448 678.523,569.903C668.614,571.504 658.634,572.759 648.618,573.476C622.455,574.731 596.256,575.377 570.068,575.257C546.712,575.221 523.356,575.225 500,575.227ZM500,489.754C494.577,489.752 489.153,489.751 483.729,489.751C475.458,489.655 467.139,490.181 458.892,489.201C446.892,487.886 434.784,488.412 422.784,487.145C413.545,485.998 404.199,486.38 394.948,485.329C376.314,484.169 357.812,481.611 339.286,479.376C326.724,477.117 313.852,476.747 301.493,473.352C289.314,470.508 275.939,469.982 265.278,462.787C263.557,461.352 259.696,459.153 262.29,456.727C265.816,454.289 270.549,455.771 274.553,455.496C349.696,455.86 424.847,455.6 500,455.57C575.153,455.6 650.304,455.86 725.447,455.496C729.451,455.771 734.184,454.289 737.71,456.727C740.304,459.153 736.443,461.352 734.722,462.787C724.061,469.982 710.686,470.508 698.507,473.352C686.148,476.747 673.276,477.117 660.714,479.376C642.188,481.611 623.686,484.169 605.052,485.329C595.801,486.38 586.455,485.998 577.216,487.145C565.216,488.412 553.108,487.886 541.108,489.201C532.861,490.181 524.542,489.655 516.271,489.751C510.847,489.751 505.423,489.752 500,489.754ZM789.487,183.857C790.754,183.451 799.473,223.557 803.967,262.674C806.827,287.568 811.437,342.767 813.634,382.167C814.366,395.296 814.511,407.321 814.553,415.236C814.574,419.126 814.57,422.023 814.599,423.571C814.324,434.065 816.045,445.265 811.085,454.994C804.762,448.994 797.711,443.508 789.272,440.89C776.938,437.794 764.22,439.647 751.706,439.898C745.79,440.101 740.973,444.416 735.081,444.631C656.724,444.621 578.359,444.619 500,444.619C421.641,444.619 343.276,444.621 264.919,444.631C259.027,444.416 254.21,440.101 248.294,439.898C235.78,439.647 223.062,437.794 210.728,440.89C202.289,443.508 195.238,448.994 188.915,454.994C183.955,445.265 185.676,434.065 185.401,423.571C185.43,422.023 185.426,419.126 185.447,415.236C185.489,407.321 185.634,395.296 186.366,382.167C188.563,342.767 193.173,287.568 196.033,262.674C200.527,223.557 209.246,183.451 210.513,183.857C213.011,184.598 216.262,185.459 218.401,183.463C221.309,180.695 223.517,177.248 225.226,173.626C225.079,182.267 214.732,239.738 207.756,298.474C201.068,354.782 197.742,412.43 197.497,421.205C196.995,427.014 199.6,433.551 205.373,435.691C212.078,436.91 218.783,434.579 225.525,434.771C244.66,434.854 263.784,434.759 282.919,434.842C290.521,434.926 298.039,433.432 305.652,433.563C322.385,433.695 339.119,433.554 355.84,433.635C361.828,433.664 367.756,432.607 373.72,432.44C415.814,432.411 457.907,432.406 500,432.406C542.093,432.406 584.186,432.411 626.28,432.44C632.244,432.607 638.172,433.664 644.16,433.635C660.881,433.554 677.615,433.695 694.348,433.563C701.961,433.432 709.479,434.926 717.081,434.842C736.216,434.759 755.34,434.854 774.475,434.771C781.217,434.579 787.922,436.91 794.627,435.691C800.4,433.551 803.005,427.014 802.503,421.205C802.258,412.43 798.932,354.782 792.244,298.474C785.268,239.738 774.921,182.267 774.774,173.626C776.483,177.248 778.718,180.666 781.599,183.463C783.718,185.48 786.989,184.598 789.487,183.857Z" style="fill:rgb(139,196,234);"/>
    <path d="M849.906,354.918C852.022,352.181 853.151,348.357 856.504,346.79C861.832,344.3 867.763,343.479 873.583,343.109C883.635,342.714 893.723,343.025 903.691,344.436C913.97,345.965 924.548,346.79 934.193,351.009C940.504,353.304 945.353,358.125 950.018,362.758C952.92,365.641 955.528,372.112 955.696,376.343C956.114,385.068 956.768,390.989 956.185,399.727C955.885,404.232 954.654,409.357 950.448,411.786C943.214,415.965 934.635,416.46 926.866,419.197C918.751,422.113 910.372,424.109 902.209,426.834C898.133,428.089 896.472,427.576 890.27,429.699C885.699,431.263 877.814,431.95 871.826,434.878C870.727,443.424 871.623,452.03 871.516,460.611C871.599,486.93 871.324,513.249 871.707,539.568C872.328,555.691 870.631,612.476 869.52,624.727C868.169,640.911 867.858,657.166 866.89,673.373C866.496,684.297 866.777,695.246 865.886,706.146C865.091,715.876 866.173,725.808 863.974,735.393C863.173,740.557 855.44,740.043 854.687,745.23C854.41,746.506 854.191,747.793 854.014,749.088C856.879,749.929 860.598,754.723 861.935,756.743C861.947,797.106 863.675,844.601 863.639,884.964C863.484,889.756 863.52,894.776 861.488,899.223C857.933,907.001 851.953,915.178 841.193,916.196C833.958,916.88 815.209,917.557 802.563,915.621C791.615,914.031 781.479,906.573 777.726,896.043C775.826,888.92 776.818,881.45 776.711,874.183C777.353,854.837 776.589,822.855 776.477,802.953C763.927,802.854 751.355,802.488 738.882,803.174C715.288,802.804 691.682,802.768 668.089,803.115C654.224,804.728 640.264,803.688 626.351,804.37C610.419,805.983 594.403,805.063 578.423,805.326C552.282,805.357 526.141,805.372 500,805.368C473.859,805.372 447.718,805.357 421.577,805.326C405.597,805.063 389.581,805.983 373.649,804.37C359.736,803.688 345.776,804.728 331.911,803.115C308.318,802.768 284.712,802.804 261.118,803.174C248.645,802.488 236.073,802.854 223.523,802.953C223.411,822.855 222.647,854.837 223.289,874.183C223.182,881.45 224.174,888.92 222.274,896.043C218.521,906.573 208.385,914.031 197.437,915.621C184.791,917.557 166.042,916.88 158.807,916.196C148.047,915.178 142.067,907.001 138.512,899.223C136.48,894.776 136.516,889.756 136.361,884.964C136.325,844.601 138.053,797.106 138.065,756.743C139.402,754.723 143.121,749.929 145.986,749.088C145.809,747.793 145.59,746.506 145.313,745.23C144.56,740.043 136.827,740.557 136.026,735.393C133.827,725.808 134.909,715.876 134.114,706.146C133.223,695.246 133.504,684.297 133.11,673.373C132.142,657.166 131.831,640.911 130.48,624.727C129.369,612.476 127.672,555.691 128.293,539.568C128.676,513.249 128.401,486.93 128.484,460.611C128.377,452.03 129.273,443.424 128.174,434.878C122.186,431.95 114.301,431.263 109.73,429.699C103.528,427.576 101.867,428.089 97.791,426.834C89.628,424.109 81.249,422.113 73.134,419.197C65.365,416.46 56.786,415.965 49.552,411.786C45.346,409.357 44.115,404.232 43.815,399.727C43.232,390.989 43.886,385.068 44.304,376.343C44.472,372.112 47.08,365.641 49.982,362.758C54.647,358.125 59.496,353.304 65.807,351.009C75.452,346.79 86.03,345.965 96.309,344.436C106.277,343.025 116.365,342.714 126.417,343.109C132.237,343.479 138.168,344.3 143.496,346.79C146.849,348.357 147.978,352.181 150.094,354.918C152.186,358.145 155.353,361.003 155.759,365.017C156.282,370.182 155.891,375.368 155.891,380.543C155.676,389.268 156.261,398.005 155.735,406.731C155.616,410.197 154.397,414.464 150.488,415.265C139.911,417.906 128.64,414.906 118.229,418.671C127.779,423.105 138.429,424.982 148.923,424.635C152.496,424.312 157.014,423.798 158.819,420.225C160.851,415.253 160.851,409.755 161.186,404.484C161.7,385.922 160.911,367.348 161.7,348.798C161.986,336.75 162.68,324.726 162.536,312.69C163.504,302.125 164.556,291.559 165.907,281.029L165.943,282.033C166.002,285.057 166.253,288.081 166.481,291.105C169.588,281.937 167.927,270.714 175.445,263.507C177.991,278.901 175.803,294.475 175.277,309.941C174.034,322.539 175.134,335.208 173.903,347.794C172.767,364.683 173.819,381.619 173.377,398.519C172.504,412.922 168.895,427.049 168.369,441.488C167.855,454.659 166.743,467.807 166.05,480.966C165.405,492.5 162.596,503.998 163.959,515.58C164.353,519.416 165.608,523.181 165.357,527.066C163.863,530.496 160.935,533.006 158.592,535.851C152.712,542.46 148.815,550.624 146.568,559.134C154.146,559.074 161.928,558.653 169.218,561.046C176.199,563.338 181.457,568.899 185.795,574.588C193.134,584.891 194.927,597.859 195.919,610.158C196.086,613.731 196.206,618.106 193.146,620.592C190.481,622.277 187.218,622.492 184.17,622.923C170.257,624.321 156.261,623.221 142.301,623.616C142.445,636.728 142.528,649.947 144.919,662.879C146.58,656.879 146.843,650.652 147.548,644.508C147.548,640.851 150.214,638.281 152.783,636.106C154.385,639.548 155.496,643.241 155.544,647.066C156.273,664.182 156.369,681.333 156.357,698.473C155.341,720.417 156.967,742.373 158.747,764.246C159.548,772.78 163.241,781.875 170.855,786.465C179.951,791.115 190.481,791.325 200.461,791.33C214.409,791.336 228.345,791.342 242.282,791.366C253.469,791.33 264.596,792.621 275.772,792.465C285.346,792.274 294.859,793.597 304.421,793.672C319.863,793.794 335.33,793.29 350.748,794.401C362.784,795.202 374.868,794.7 386.916,794.832C404.45,794.987 421.983,795.083 439.505,795.107C454.255,794.748 468.992,796.015 483.729,795.25C489.153,795.016 494.577,795.086 500,795.227C505.423,795.086 510.847,795.016 516.271,795.25C531.008,796.015 545.745,794.748 560.495,795.107C578.017,795.083 595.55,794.987 613.084,794.832C625.132,794.7 637.216,795.202 649.252,794.401C664.67,793.29 680.137,793.794 695.579,793.672C705.141,793.597 714.654,792.274 724.228,792.465C735.404,792.621 746.531,791.33 757.718,791.366C771.655,791.342 785.591,791.336 799.539,791.33C809.519,791.325 820.049,791.115 829.145,786.465C836.759,781.875 840.452,772.78 841.253,764.246C843.033,742.373 844.659,720.417 843.643,698.473C843.631,681.333 843.727,664.182 844.456,647.066C844.504,643.241 845.615,639.548 847.217,636.106C849.786,638.281 852.452,640.851 852.452,644.508C853.157,650.652 853.42,656.879 855.081,662.879C857.472,649.947 857.555,636.728 857.699,623.616C843.739,623.221 829.743,624.321 815.83,622.923C812.782,622.492 809.519,622.277 806.854,620.592C803.794,618.106 803.914,613.731 804.081,610.158C805.073,597.859 806.866,584.891 814.205,574.588C818.543,568.899 823.801,563.338 830.782,561.046C838.072,558.653 845.854,559.074 853.432,559.134C851.185,550.624 847.288,542.46 841.408,535.851C839.065,533.006 836.137,530.496 834.643,527.066C834.392,523.181 835.647,519.416 836.041,515.58C837.404,503.998 834.595,492.5 833.95,480.966C833.257,467.807 832.145,454.659 831.631,441.488C831.105,427.049 827.496,412.922 826.623,398.519C826.181,381.619 827.233,364.683 826.097,347.794C824.866,335.208 825.966,322.539 824.723,309.941C824.197,294.475 822.009,278.901 824.555,263.507C832.073,270.714 830.412,281.937 833.519,291.105C833.747,288.081 833.998,285.057 834.057,282.033L834.093,281.029C835.444,291.559 836.496,302.125 837.464,312.69C837.32,324.726 838.014,336.75 838.3,348.798C839.089,367.348 838.3,385.922 838.814,404.484C839.149,409.755 839.149,415.253 841.181,420.225C842.986,423.798 847.504,424.312 851.077,424.635C861.571,424.982 872.221,423.105 881.771,418.671C871.36,414.906 860.089,417.906 849.512,415.265C845.603,414.464 844.384,410.197 844.265,406.731C843.739,398.005 844.324,389.268 844.109,380.543C844.109,375.368 843.718,370.182 844.241,365.017C844.647,361.003 847.814,358.145 849.906,354.918ZM194.34,190.262C194.596,189.429 194.907,188.609 195.297,187.813C200.059,178.111 197.927,166.574 202.947,156.953C206.748,149.064 215.353,144.821 223.624,143.375C232.72,142.287 242.031,143.734 251.007,141.618C256.983,139.67 262.457,136.467 268.361,134.351C278.521,130.204 289.672,130.287 300.298,128.196C308.593,127.431 359.139,122.112 376.218,121.192C390.824,118.909 405.609,117.869 420.394,117.988C438.681,116.602 457.027,117.224 475.35,117.032C481.876,116.889 488.673,117.055 495.663,116.72C495.771,116.715 496.093,112.091 496.248,109.593C496.261,105.02 496.746,93.31 497.596,87.675C498.346,82.704 499.425,83.148 500,83.108C500.575,83.148 501.654,82.704 502.404,87.675C503.254,93.31 503.739,105.02 503.752,109.593C503.907,112.091 504.229,116.715 504.337,116.72C511.327,117.055 518.124,116.889 524.65,117.032C542.973,117.224 561.319,116.602 579.606,117.988C594.391,117.869 609.176,118.909 623.782,121.192C640.861,122.112 691.407,127.431 699.702,128.196C710.328,130.287 721.479,130.204 731.639,134.351C737.543,136.467 743.017,139.67 748.993,141.618C757.969,143.734 767.28,142.287 776.376,143.375C784.647,144.821 793.252,149.064 797.053,156.953C802.073,166.574 799.941,178.111 804.703,187.813C805.093,188.609 805.404,189.429 805.66,190.262C806.71,193.672 806.787,197.335 806.902,200.889C806.995,209.581 815.766,275.616 820.253,340.866C823.823,392.797 823.362,445.695 823.145,458.233C822.655,475.898 819.583,493.337 817.575,510.858C816.177,519.452 823.073,527.03 821.053,535.647C819.296,543.703 815.376,551.173 810.906,558.034C801.177,570.799 786.332,578.484 771.284,583.181C757.24,588.608 742.336,590.927 727.551,593.257C709.969,597.022 699.791,596.775 680.395,598.415C670.295,599.268 653.83,600.883 643.73,601.564C634.515,602.317 627.758,602.693 617.201,603.476C614.299,603.691 612.226,603.795 610.443,603.863C607.393,603.979 605.19,603.988 601.129,604.264C599.549,604.372 597.688,604.52 595.386,604.731C589.328,605.286 577.682,604.935 574.371,608.174C583.67,608.974 593.005,608.413 602.327,608.7C638.985,609.668 675.642,609.058 712.312,609.118C717.356,609.225 722.555,609.01 727.419,610.6C729.069,611.054 730.261,612.399 730.957,613.935C733.005,618.449 733.671,623.461 733.898,628.385C733.635,651.154 730.694,674.234 722.16,695.485C718.073,708.07 714.965,721.17 708.176,732.68C701.184,743.652 691.969,754.266 679.061,758.15C656.913,764.76 633.511,762.836 610.742,764.891C573.83,764.947 536.915,764.95 500,764.95C463.085,764.95 426.17,764.947 389.258,764.891C366.489,762.836 343.087,764.76 320.939,758.15C308.031,754.266 298.816,743.652 291.824,732.68C285.035,721.17 281.927,708.07 277.84,695.485C269.306,674.234 266.365,651.154 266.102,628.385C266.329,623.461 266.995,618.449 269.043,613.935C269.739,612.399 270.931,611.054 272.581,610.6C277.445,609.01 282.644,609.225 287.688,609.118C324.358,609.058 361.015,609.668 397.673,608.7C406.995,608.413 416.33,608.974 425.629,608.174C422.318,604.935 410.672,605.286 404.614,604.731C402.312,604.52 400.451,604.372 398.871,604.264C394.81,603.988 392.607,603.979 389.557,603.863C387.774,603.795 385.701,603.691 382.799,603.476C372.242,602.693 365.485,602.317 356.27,601.564C346.17,600.883 329.705,599.268 319.605,598.415C300.209,596.775 290.031,597.022 272.449,593.257C257.664,590.927 242.76,588.608 228.716,583.181C213.668,578.484 198.823,570.799 189.094,558.034C184.624,551.173 180.704,543.703 178.947,535.647C176.927,527.03 183.823,519.452 182.425,510.858C180.417,493.337 177.345,475.898 176.855,458.233C176.638,445.695 176.177,392.797 179.747,340.866C184.234,275.616 193.005,209.581 193.098,200.889C193.213,197.335 193.29,193.672 194.34,190.262ZM155.915,435.93C150.871,435.775 145.803,435.786 140.747,435.918C139.206,444.87 140.198,453.978 139.958,463.014C139.707,482.544 140.652,502.133 138.895,521.627C138.464,531.165 138.596,540.787 140.03,550.253C143.472,544.647 146.221,538.659 149.759,533.114C151.911,529.528 154.445,525.799 154.409,521.46C154.504,516.715 154.038,511.946 154.66,507.225C156.453,495.751 155.449,484.097 156.871,472.599C156.739,460.384 157.994,448.026 155.915,435.93ZM844.085,435.93C842.006,448.026 843.261,460.384 843.129,472.599C844.551,484.097 843.547,495.751 845.34,507.225C845.962,511.946 845.496,516.715 845.591,521.46C845.555,525.799 848.089,529.528 850.241,533.114C853.779,538.659 856.528,544.647 859.97,550.253C861.404,540.787 861.536,531.165 861.105,521.627C859.348,502.133 860.293,482.544 860.042,463.014C859.802,453.978 860.794,444.87 859.253,435.918C854.197,435.786 849.129,435.775 844.085,435.93ZM858.954,358.623C852.846,370.133 854.304,383.591 854.269,396.141C854.675,398.364 853.779,401.735 856.396,402.81C859.193,403.934 862.3,403.731 865.265,403.826C884.795,403.695 904.313,403.778 923.843,403.731C931.217,403.695 938.651,404.209 945.966,402.894C945.655,391.193 948.739,377.46 940.121,367.886C929.281,357.798 913.946,354.726 899.651,353.507C889.372,352.838 879.046,352.049 868.767,352.91C864.834,353.161 860.783,354.954 858.954,358.623ZM141.046,358.623C139.217,354.954 135.166,353.161 131.233,352.91C120.954,352.049 110.628,352.838 100.349,353.507C86.054,354.726 70.719,357.798 59.879,367.886C51.261,377.46 54.345,391.193 54.034,402.894C61.349,404.209 68.783,403.695 76.157,403.731C95.687,403.778 115.205,403.695 134.735,403.826C137.7,403.731 140.807,403.934 143.604,402.81C146.221,401.735 145.325,398.364 145.731,396.141C145.696,383.591 147.154,370.133 141.046,358.623ZM178.433,585.297C174.429,578.006 167.066,572.377 158.616,571.66C153.811,571.373 150.01,575.018 147.739,578.891C143.7,584.855 143.293,592.301 142.851,599.281C142.457,603.823 143.974,608.198 145.684,612.333C155.472,614.365 165.5,613.947 175.433,613.97C178.218,613.743 182.174,613.911 183.345,610.743C186.082,602.042 182.628,592.935 178.433,585.297ZM821.567,585.297C817.372,592.935 813.918,602.042 816.655,610.743C817.826,613.911 821.782,613.743 824.567,613.97C834.5,613.947 844.528,614.365 854.316,612.333C856.026,608.198 857.543,603.823 857.149,599.281C856.707,592.301 856.3,584.855 852.261,578.891C849.99,575.018 846.189,571.373 841.384,571.66C832.934,572.377 825.571,578.006 821.567,585.297ZM222.632,667.026C239.521,671.401 251.306,690.333 247.302,707.437C244.349,717.011 238.098,725.724 229.457,730.935C222.883,734.855 214.911,733.971 207.584,733.959C200.449,734.162 194.461,729.572 189.441,725.031C181.732,717.584 179.353,706.385 180.238,696.035C180.082,686.186 184.767,676.301 192.907,670.672C201.632,664.923 212.772,665.927 222.632,667.026ZM223.935,717.118C228.931,713.21 232.373,707.174 233.031,700.875C232.696,694.78 229.744,689.21 226.899,683.951C225.391,680.52 219.134,680.028 215.887,679.448C211.151,679.013 206.012,679.124 202.301,682.409C198.931,685.289 195.405,688.851 195.238,693.596C194.748,699.393 194.473,705.692 197.425,710.951C200.054,715.971 205.54,719.126 211.146,719.365C215.448,719.533 220.384,720.058 223.935,717.118ZM500,775.991C512.595,775.964 525.191,775.944 537.785,775.959C563.291,775.899 588.809,776.055 614.315,775.648C630.236,775.027 646.168,775.146 662.089,774.824C687.571,773.736 713.077,774.166 738.583,773.844C743.914,773.688 749.471,773.724 754.324,776.282C753.738,780.609 751.862,785.999 746.663,786.238C734.423,786.991 722.125,786.035 709.862,786.549C705.332,786.788 700.8,787.535 696.26,787.003C690.448,786.321 684.666,787.35 678.869,787.624C646.587,787.923 566.1,786.68 558.068,787.577C538.715,787.847 519.358,787.846 500,787.801C480.642,787.846 461.285,787.847 441.932,787.577C433.9,786.68 353.413,787.923 321.131,787.624C315.334,787.35 309.552,786.321 303.74,787.003C299.2,787.535 294.668,786.788 290.138,786.549C277.875,786.035 265.577,786.991 253.337,786.238C248.138,785.999 246.262,780.609 245.676,776.282C250.529,773.724 256.086,773.688 261.417,773.844C286.923,774.166 312.429,773.736 337.911,774.824C353.832,775.146 369.764,775.027 385.685,775.648C411.191,776.055 436.709,775.899 462.215,775.959C474.809,775.944 487.405,775.964 500,775.991ZM777.368,667.026C787.228,665.927 798.368,664.923 807.093,670.672C815.233,676.301 819.918,686.186 819.762,696.035C820.647,706.385 818.268,717.584 810.559,725.031C805.539,729.572 799.551,734.162 792.416,733.959C785.089,733.971 777.117,734.855 770.543,730.935C761.902,725.724 755.651,717.011 752.698,707.437C748.694,690.333 760.479,671.401 777.368,667.026ZM776.065,717.118C779.616,720.058 784.552,719.533 788.854,719.365C794.46,719.126 799.946,715.971 802.575,710.951C805.527,705.692 805.252,699.393 804.762,693.596C804.595,688.851 801.069,685.289 797.699,682.409C793.988,679.124 788.849,679.013 784.113,679.448C780.866,680.028 774.609,680.52 773.101,683.951C770.256,689.21 767.304,694.78 766.969,700.875C767.627,707.174 771.069,713.21 776.065,717.118ZM500,720.438C559.209,720.438 618.419,720.441 677.626,720.441C682.802,720.393 688.001,720.835 693.164,720.238C695.662,720.047 697.743,718.272 698.806,716.078C700.687,712.196 701.854,708.023 703.766,704.162C708.798,694.325 710.698,683.329 714.38,672.991C720.631,657.046 721.312,639.154 717.451,622.552C716.71,619.206 712.467,620.186 709.981,619.815C639.986,619.846 569.992,619.882 500,619.865C430.008,619.882 360.014,619.846 290.019,619.815C287.533,620.186 283.29,619.206 282.549,622.552C278.688,639.154 279.369,657.046 285.62,672.991C289.302,683.329 291.202,694.325 296.234,704.162C298.146,708.023 299.313,712.196 301.194,716.078C302.257,718.272 304.338,720.047 306.836,720.238C311.999,720.835 317.198,720.393 322.374,720.441C381.581,720.441 440.791,720.438 500,720.438ZM757.766,451.097C757.898,452.508 758.041,453.93 758.196,455.364C765.882,456.524 773.663,455.46 781.36,456.32C791.28,458.603 798.153,468.069 800.137,477.667C801.105,486.416 800.4,496.265 794.304,503.173C791.806,506.592 787.862,509.233 786.643,513.416C786.989,521.102 789.452,528.536 790.563,536.149C796.061,534.237 799.599,529.289 802.252,524.365C805.599,517.755 804.834,510.094 806.472,503.042C809.125,490.779 810.009,476.723 802.695,465.834C798.201,459.225 792.464,452.089 784.049,450.846C775.36,449.663 766.348,448.802 757.766,451.097ZM733.037,477.093C727.635,486.572 726.332,497.556 722.388,507.596C721.635,509.759 720.559,512.735 722.842,514.408C728.543,517.086 734.973,515.113 740.985,515.364C750.057,515.329 759.858,518.424 765.535,525.835C767.603,534.643 766.336,543.93 768.547,552.775C772.169,551.675 776.627,551.042 778.671,547.408C780.655,543.5 780.009,538.898 780.009,534.667C779.519,528.62 779.448,522.285 776.973,516.655C770.543,513.643 762.822,515.52 756.523,512.03C749.627,508.002 743.292,502.384 739.945,494.998C737.949,490.839 739.647,486.141 738.81,481.779C738.165,479.018 735.272,478.133 733.037,477.093ZM210.513,183.857C209.246,183.451 200.527,223.557 196.033,262.674C193.173,287.568 188.563,342.767 186.366,382.167C185.634,395.296 185.489,407.321 185.447,415.236C185.426,419.126 185.43,422.023 185.401,423.571C185.676,434.065 183.955,445.265 188.915,454.994C195.238,448.994 202.289,443.508 210.728,440.89C223.062,437.794 235.78,439.647 248.294,439.898C254.21,440.101 259.027,444.416 264.919,444.631C343.276,444.621 421.641,444.619 500,444.619C578.359,444.619 656.724,444.621 735.081,444.631C740.973,444.416 745.79,440.101 751.706,439.898C764.22,439.647 776.938,437.794 789.272,440.89C797.711,443.508 804.762,448.994 811.085,454.994C816.045,445.265 814.324,434.065 814.599,423.571C814.57,422.023 814.574,419.126 814.553,415.236C814.511,407.321 814.366,395.296 813.634,382.167C811.437,342.767 806.827,287.568 803.967,262.674C799.473,223.557 790.754,183.451 789.487,183.857C791.209,180.809 790.515,177.068 790.491,173.722C789.822,167.542 789.225,160.108 783.464,156.403C780.452,153.833 776.424,155.244 773.113,156.295C773.961,162.044 773.579,167.925 774.774,173.626C774.921,182.267 785.268,239.738 792.244,298.474C798.932,354.782 802.258,412.43 802.503,421.205C803.005,427.014 800.4,433.551 794.627,435.691C787.922,436.91 781.217,434.579 774.475,434.771C755.34,434.854 736.216,434.759 717.081,434.842C709.479,434.926 701.961,433.432 694.348,433.563C677.615,433.695 660.881,433.554 644.16,433.635C638.172,433.664 632.244,432.607 626.28,432.44C584.186,432.411 542.093,432.406 500,432.406C457.907,432.406 415.814,432.411 373.72,432.44C367.756,432.607 361.828,433.664 355.84,433.635C339.119,433.554 322.385,433.695 305.652,433.563C298.039,433.432 290.521,434.926 282.919,434.842C263.784,434.759 244.66,434.854 225.525,434.771C218.783,434.579 212.078,436.91 205.373,435.691C199.6,433.551 196.995,427.014 197.497,421.205C197.742,412.43 201.068,354.782 207.756,298.474C214.732,239.738 225.079,182.267 225.226,173.626C226.421,167.925 226.039,162.044 226.887,156.295C223.576,155.244 219.548,153.833 216.536,156.403C210.775,160.108 210.178,167.542 209.509,173.722C209.485,177.068 208.791,180.809 210.513,183.857ZM791.08,408.623C790.978,406.898 790.884,405.034 790.814,402.964C790.801,402.585 790.789,402.2 790.778,401.806C790.626,396.351 787.641,351.441 782.996,309.419C779.088,274.057 773.638,240.777 772.64,234.281C772.599,234.032 772.561,233.782 772.527,233.531C771.416,224.483 768.332,215.829 767.483,206.734C765.726,201.487 765.322,195.953 765.105,190.467C764.796,182.662 761.735,175.375 760.503,167.722C759.846,163.636 758.591,159.642 756.38,156.116C752.794,169.192 759.655,182.758 755.997,195.929C752.22,196.144 748.42,196.562 744.667,196.013C740.806,195.296 737.424,193.192 733.778,191.853C716.591,186.164 699.009,181.849 681.583,177.044C660.786,172.73 639.905,169.048 618.786,166.73C606.499,165.546 594.439,162.14 582.009,162.594C572.005,163.048 562.12,160.993 552.128,161.327C546.188,161.399 540.247,161.375 534.319,161.005C522.898,160.021 511.45,160.099 500,160.21C488.55,160.099 477.102,160.021 465.681,161.005C459.753,161.375 453.812,161.399 447.872,161.327C437.88,160.993 427.995,163.048 417.991,162.594C405.561,162.14 393.501,165.546 381.214,166.73C360.095,169.048 339.214,172.73 318.417,177.044C300.991,181.849 283.409,186.164 266.222,191.853C262.576,193.192 259.194,195.296 255.333,196.013C251.58,196.562 247.78,196.144 244.003,195.929C240.345,182.758 247.206,169.192 243.62,156.116C241.409,159.642 240.154,163.636 239.497,167.722C238.265,175.375 235.204,182.662 234.895,190.467C234.678,195.953 234.274,201.487 232.517,206.734C231.668,215.829 228.584,224.483 227.473,233.531C227.439,233.782 227.4,234.032 227.36,234.281C226.328,240.772 220.912,274.057 217.004,309.419C212.359,351.441 209.374,396.351 209.222,401.806C209.211,402.2 209.199,402.585 209.186,402.964C209.116,405.034 209.022,406.898 208.92,408.623C208.587,408.601 208.26,408.579 207.938,408.557C207.943,408.619 207.95,408.682 207.958,408.745C208.271,408.766 208.588,408.787 208.909,408.808C208.538,415.009 208.075,419.438 208.325,425.292C238.78,425.89 269.342,425.526 299.712,425.472C311.485,424.686 322.812,424.404 334.268,424.229C349.015,424.307 363.772,424.655 378.465,423.32C395.151,422.639 411.86,423.643 428.521,422.83C439.721,421.468 450.992,422.065 462.215,421.922C474.81,421.922 487.405,421.922 500,421.922C512.595,421.922 525.19,421.922 537.785,421.922C549.008,422.065 560.279,421.468 571.479,422.83C588.14,423.643 604.849,422.639 621.535,423.32C636.228,424.655 650.985,424.307 665.732,424.229C677.188,424.404 688.515,424.686 700.288,425.472C730.658,425.526 761.22,425.89 791.675,425.292C791.925,419.438 791.462,415.009 791.091,408.808C791.412,408.787 791.729,408.766 792.042,408.745C792.05,408.682 792.057,408.619 792.062,408.557C791.74,408.579 791.413,408.601 791.08,408.623ZM721.551,199.06C693.248,196.969 665.196,192.152 636.81,190.933C613.419,188.758 589.885,189.343 566.459,187.79C544.306,187.607 522.153,187.682 500,187.701C477.847,187.682 455.694,187.607 433.541,187.79C410.115,189.343 386.581,188.758 363.19,190.933C334.804,192.152 306.752,196.969 278.449,199.06C276.74,198.989 275.019,198.905 273.286,198.786C282.011,191.578 293.545,189.451 304.409,187.742C313.278,186.63 321.919,184.12 330.836,183.236C342.776,182.124 354.561,179.519 366.597,179.399C376.206,179.363 385.673,177.463 395.258,176.985C406.828,176.519 418.362,175.308 429.944,175.742C443.927,176.266 457.804,173.925 471.776,174.499C481.18,174.666 490.591,174.574 500,174.495C509.409,174.574 518.82,174.666 528.224,174.499C542.196,173.925 556.073,176.266 570.056,175.742C581.638,175.308 593.172,176.519 604.742,176.985C614.327,177.463 623.794,179.363 633.403,179.399C645.439,179.519 657.224,182.124 669.164,183.236C678.081,184.12 686.722,186.63 695.591,187.742C706.455,189.451 717.989,191.578 726.714,198.786C724.981,198.905 723.26,198.989 721.551,199.06ZM343.027,161.471C350.198,160.849 357.334,159.917 364.362,158.387C365.963,158.045 367.574,157.786 369.191,157.578C378.8,156.142 399.384,153.616 419.864,152.001C443.58,150.131 467.174,149.622 472.96,149.483C480.234,149.308 492.536,149.496 500,149.312C507.464,149.496 519.766,149.308 527.04,149.483C532.826,149.622 556.42,150.131 580.136,152.001C600.616,153.616 621.2,156.142 630.809,157.578C632.426,157.786 634.037,158.045 635.638,158.387C642.666,159.917 649.802,160.849 656.973,161.471C680.423,165.869 703.575,171.714 726.714,177.487C732.786,179.076 738.439,182.124 744.774,182.734C745.312,174.582 745.503,166.347 744.631,158.22C744.165,155.841 743.997,152.925 741.75,151.479C730.766,144.188 717.38,142.921 705.045,139.144C690.69,136.251 675.989,135.857 661.467,134.495C649.969,132.582 633.685,131.382 622.175,129.637C608.647,127.477 540.955,123.431 500,124.35C459.045,123.431 391.353,127.477 377.825,129.637C366.315,131.382 350.031,132.582 338.533,134.495C324.011,135.857 309.31,136.251 294.955,139.144C282.62,142.921 269.234,144.188 258.25,151.479C256.003,152.925 255.835,155.841 255.369,158.22C254.497,166.347 254.688,174.582 255.226,182.734C261.561,182.124 267.214,179.076 273.286,177.487C296.425,171.714 319.577,165.869 343.027,161.471ZM242.234,451.097C233.652,448.802 224.64,449.663 215.951,450.846C207.536,452.089 201.799,459.225 197.305,465.834C189.991,476.723 190.875,490.779 193.528,503.042C195.166,510.094 194.401,517.755 197.748,524.365C200.401,529.289 203.939,534.237 209.437,536.149C210.548,528.536 213.011,521.102 213.357,513.416C212.138,509.233 208.194,506.592 205.696,503.173C199.6,496.265 198.895,486.416 199.863,477.667C201.847,468.069 208.72,458.603 218.64,456.32C226.337,455.46 234.118,456.524 241.804,455.364C241.959,453.93 242.102,452.508 242.234,451.097ZM266.963,477.093C264.728,478.133 261.835,479.018 261.19,481.779C260.353,486.141 262.051,490.839 260.055,494.998C256.708,502.384 250.373,508.002 243.477,512.03C237.178,515.52 229.457,513.643 223.027,516.655C220.552,522.285 220.481,528.62 219.991,534.667C219.991,538.898 219.345,543.5 221.329,547.408C223.373,551.042 227.831,551.675 231.453,552.775C233.664,543.93 232.397,534.643 234.465,525.835C240.142,518.424 249.943,515.329 259.015,515.364C265.027,515.113 271.457,517.086 277.158,514.408C279.441,512.735 278.365,509.759 277.612,507.596C273.668,497.556 272.365,486.572 266.963,477.093ZM500,596.459C506.629,596.457 513.257,596.42 519.881,596.305C529.514,595.444 539.194,597.084 548.817,595.911C558.402,594.742 568.084,595.839 577.694,594.811C594.212,592.946 610.897,595.193 627.415,593.15C642.738,592.719 658.037,591.536 673.276,589.899C684.391,589.265 695.22,586.421 706.36,586.05C726.499,583.421 746.519,579.464 766.073,573.966C781.456,570.369 794.746,559.922 803.663,547.098C802.217,547.002 800.579,546.572 799.444,547.731C796.025,550.241 793.181,553.516 789.416,555.524C772.575,564.01 754.192,568.887 735.667,572.03C723.834,573.978 712.396,578.042 700.36,578.711C682.897,580.958 665.399,583.564 647.746,583.373C636.941,583.337 626.304,585.68 615.499,585.703C594.379,585.691 573.26,586.086 552.14,586.48C542.554,586.624 533.028,585.154 523.443,585.345C515.628,585.421 507.814,585.398 500,585.376C492.186,585.398 484.372,585.421 476.557,585.345C466.972,585.154 457.446,586.624 447.86,586.48C426.74,586.086 405.621,585.691 384.501,585.703C373.696,585.68 363.059,583.337 352.254,583.373C334.601,583.564 317.103,580.958 299.64,578.711C287.604,578.042 276.166,573.978 264.333,572.03C245.808,568.887 227.425,564.01 210.584,555.524C206.819,553.516 203.975,550.241 200.556,547.731C199.421,546.572 197.783,547.002 196.337,547.098C205.254,559.922 218.544,570.369 233.927,573.966C253.481,579.464 273.501,583.421 293.64,586.05C304.78,586.421 315.609,589.265 326.724,589.899C341.963,591.536 357.262,592.719 372.585,593.15C389.103,595.193 405.788,592.946 422.306,594.811C431.916,595.839 441.598,594.742 451.183,595.911C460.806,597.084 470.486,595.444 480.119,596.305C486.743,596.42 493.371,596.457 500,596.459ZM500,575.227C523.356,575.225 546.712,575.221 570.068,575.257C596.256,575.377 622.455,574.731 648.618,573.476C658.634,572.759 668.614,571.504 678.523,569.903C681.666,569.448 684.846,568.062 686.555,565.253C692.053,556.851 694.599,547.026 698.662,537.942C707.113,519.608 712.862,500.173 721.455,481.898C716.555,481.205 711.559,481.325 706.79,482.687C695.113,485.747 683.005,486.416 671.184,488.699C641.65,492.643 612.104,496.743 582.331,498.368C555.025,501.708 527.513,501.038 500,501.121C472.487,501.038 444.975,501.708 417.669,498.368C387.896,496.743 358.35,492.643 328.816,488.699C316.995,486.416 304.887,485.747 293.21,482.687C288.441,481.325 283.445,481.205 278.545,481.898C287.138,500.173 292.887,519.608 301.338,537.942C305.401,547.026 307.947,556.851 313.445,565.253C315.154,568.062 318.334,569.448 321.477,569.903C331.386,571.504 341.366,572.759 351.382,573.476C377.545,574.731 403.744,575.377 429.932,575.257C453.288,575.221 476.644,575.225 500,575.227ZM500,489.754C505.423,489.752 510.847,489.751 516.271,489.751C524.542,489.655 532.861,490.181 541.108,489.201C553.108,487.886 565.216,488.412 577.216,487.145C586.455,485.998 595.801,486.38 605.052,485.329C623.686,484.169 642.188,481.611 660.714,479.376C673.276,477.117 686.148,476.747 698.507,473.352C710.686,470.508 724.061,469.982 734.722,462.787C736.443,461.352 740.304,459.153 737.71,456.727C734.184,454.289 729.451,455.771 725.447,455.496C650.304,455.86 575.153,455.6 500,455.57C424.847,455.6 349.696,455.86 274.553,455.496C270.549,455.771 265.816,454.289 262.29,456.727C259.696,459.153 263.557,461.352 265.278,462.787C275.939,469.982 289.314,470.508 301.493,473.352C313.852,476.747 326.724,477.117 339.286,479.376C357.812,481.611 376.314,484.169 394.948,485.329C404.199,486.38 413.545,485.998 422.784,487.145C434.784,488.412 446.892,487.886 458.892,489.201C467.139,490.181 475.458,489.655 483.729,489.751C489.153,489.751 494.577,489.752 500,489.754ZM759.428,468.332C755.531,470.52 752.125,473.914 750.224,477.99C748.36,483.846 748.957,490.755 752.28,495.99C756.499,500.998 762.953,504.894 769.718,503.986C774.989,503.711 780.715,501.775 783.595,497.042C786.977,490.958 788.675,482.902 784.754,476.651C782.352,472.743 779.603,467.783 774.475,467.412C769.491,466.982 764.197,466.516 759.428,468.332ZM240.572,468.332C235.803,466.516 230.509,466.982 225.525,467.412C220.397,467.783 217.648,472.743 215.246,476.651C211.325,482.902 213.023,490.958 216.405,497.042C219.285,501.775 225.011,503.711 230.282,503.986C237.047,504.894 243.501,500.998 247.72,495.99C251.043,490.755 251.64,483.846 249.776,477.99C247.875,473.914 244.469,470.52 240.572,468.332ZM291.441,549.93C287.939,542.831 286.194,534.954 281.712,528.333C272.939,528.07 264.154,528.094 255.381,528.273C252.238,528.428 248.102,528.596 246.895,532.157C244.588,538.444 244.588,545.687 246.238,552.13C253.385,557.269 262.517,558.201 270.907,560.006C278.855,561.488 286.863,563.233 295.015,562.624C294.226,558.297 293.318,553.934 291.441,549.93ZM708.559,549.93C706.682,553.934 705.774,558.297 704.985,562.624C713.137,563.233 721.145,561.488 729.093,560.006C737.483,558.201 746.615,557.269 753.762,552.13C755.412,545.687 755.412,538.444 753.105,532.157C751.898,528.596 747.762,528.428 744.619,528.273C735.846,528.094 727.061,528.07 718.288,528.333C713.806,534.954 712.061,542.831 708.559,549.93Z" style="fill:rgb(120,122,123);"/>
    <g transform="matrix(1.19522,0,0,1.19522,-186.153,-75.0281)">
        <path d="M330.766,399.919C330.81,399.602 330.824,399.28 330.795,398.95C330.923,394.386 333.42,356.811 337.306,321.653C340.576,292.067 345.108,264.218 345.971,258.788C346.004,258.579 346.037,258.37 346.065,258.16C347.152,250.611 349.575,243.35 350.285,235.74C352.625,234.7 354.995,233.7 357.505,233.19C367.825,231.27 378.285,230.3 388.715,229.32C412.395,227.57 435.865,223.54 459.615,222.52C479.185,220.7 498.875,221.19 518.475,219.89C537.01,219.738 555.544,219.8 574.079,219.816C592.613,219.8 611.148,219.738 629.683,219.89C649.283,221.19 668.973,220.7 688.543,222.52C712.293,223.54 735.763,227.57 759.443,229.32C769.873,230.3 780.333,231.27 790.653,233.19C793.163,233.7 795.533,234.7 797.873,235.74C798.583,243.35 801.006,250.611 802.093,258.16C802.121,258.37 802.153,258.579 802.187,258.788C803.022,264.223 807.581,292.067 810.852,321.653C814.738,356.811 817.235,394.386 817.363,398.95C817.333,399.28 817.348,399.602 817.392,399.919C817.451,401.65 817.53,403.21 817.615,404.653C812.097,405.024 804.908,405.44 799.703,405.4C792.342,405.344 785.033,406.32 777.693,406.39C755.953,406.44 734.213,406.13 712.483,406.7C703.553,406.58 694.613,406.18 685.683,406.89C662.043,407.36 638.353,406.64 614.733,408.06C604.703,408.17 594.683,408.81 584.653,408.6C581.126,408.562 577.602,408.627 574.079,408.734C570.556,408.627 567.032,408.562 563.505,408.6C553.475,408.81 543.455,408.17 533.425,408.06C509.805,406.64 486.115,407.36 462.475,406.89C453.545,406.18 444.605,406.58 435.675,406.7C413.945,406.13 392.205,406.44 370.465,406.39C363.125,406.32 355.815,405.344 348.455,405.4C343.25,405.44 336.061,405.024 330.543,404.653C330.628,403.21 330.707,401.65 330.766,399.919Z" style="fill:rgb(207,207,207);"/>
    </g>
    <g transform="matrix(1.19522,0,0,1.19522,-186.153,-75.0281)">
        <path d="M305.035,552.47C308.545,558.86 311.435,566.48 309.145,573.76C308.165,576.41 304.855,576.27 302.525,576.46C294.215,576.44 285.825,576.79 277.635,575.09C276.205,571.63 274.935,567.97 275.265,564.17C275.635,558.33 275.975,552.1 279.355,547.11C281.255,543.87 284.435,540.82 288.455,541.06C295.525,541.66 301.685,546.37 305.035,552.47ZM843.123,552.47C846.473,546.37 852.633,541.66 859.703,541.06C863.723,540.82 866.903,543.87 868.803,547.11C872.183,552.1 872.523,558.33 872.893,564.17C873.223,567.97 871.953,571.63 870.523,575.09C862.333,576.79 853.943,576.44 845.633,576.46C843.303,576.27 839.993,576.41 839.013,573.76C836.723,566.48 839.613,558.86 843.123,552.47Z" style="fill:rgb(249,144,97);"/>
    </g>
    <path d="M774.774,173.626C773.579,167.925 773.961,162.044 773.113,156.295C776.424,155.244 780.452,153.833 783.464,156.403C789.225,160.108 789.822,167.542 790.491,173.722C790.515,177.068 791.209,180.809 789.487,183.857C786.989,184.598 783.738,185.459 781.599,183.463C778.718,180.666 776.483,177.248 774.774,173.626ZM210.513,183.857C208.791,180.809 209.485,177.068 209.509,173.722C210.178,167.542 210.775,160.108 216.536,156.403C219.548,153.833 223.576,155.244 226.887,156.295C226.039,162.044 226.421,167.925 225.226,173.626C223.517,177.248 221.282,180.666 218.401,183.463C216.262,185.459 213.011,184.598 210.513,183.857ZM858.954,358.623C860.783,354.954 864.834,353.161 868.767,352.91C879.046,352.049 889.372,352.838 899.651,353.507C913.946,354.726 929.281,357.798 940.121,367.886C948.739,377.46 945.655,391.193 945.966,402.894C938.651,404.209 931.217,403.695 923.843,403.731C904.313,403.778 884.795,403.695 865.265,403.826C862.3,403.731 859.193,403.934 856.396,402.81C853.779,401.735 854.675,398.364 854.269,396.141C854.304,383.591 852.846,370.133 858.954,358.623ZM141.046,358.623C147.154,370.133 145.696,383.591 145.731,396.141C145.325,398.364 146.221,401.735 143.604,402.81C140.807,403.934 137.7,403.731 134.735,403.826C115.205,403.695 95.687,403.778 76.157,403.731C68.783,403.695 61.349,404.209 54.034,402.894C54.345,391.193 51.261,377.46 59.879,367.886C70.719,357.798 86.054,354.726 100.349,353.507C110.628,352.838 120.954,352.049 131.233,352.91C135.166,353.161 139.217,354.954 141.046,358.623ZM776.065,717.118C771.069,713.21 767.627,707.174 766.969,700.875C767.304,694.78 770.256,689.21 773.101,683.951C774.609,680.52 780.866,680.028 784.113,679.448C788.849,679.013 793.988,679.124 797.699,682.409C801.069,685.289 804.595,688.851 804.762,693.596C805.252,699.393 805.527,705.692 802.575,710.951C799.946,715.971 794.46,719.126 788.854,719.365C784.552,719.533 779.616,720.058 776.065,717.118ZM223.935,717.118C220.384,720.058 215.448,719.533 211.146,719.365C205.54,719.126 200.054,715.971 197.425,710.951C194.473,705.692 194.748,699.393 195.238,693.596C195.405,688.851 198.931,685.289 202.301,682.409C206.012,679.124 211.151,679.013 215.887,679.448C219.134,680.028 225.391,680.52 226.899,683.951C229.744,689.21 232.696,694.78 233.031,700.875C232.373,707.174 228.931,713.21 223.935,717.118ZM759.428,468.332C764.197,466.516 769.491,466.982 774.475,467.412C779.603,467.783 782.352,472.743 784.754,476.651C788.675,482.902 786.977,490.958 783.595,497.042C780.715,501.775 774.989,503.711 769.718,503.986C762.953,504.894 756.499,500.998 752.28,495.99C748.957,490.755 748.36,483.846 750.224,477.99C752.125,473.914 755.531,470.52 759.428,468.332ZM240.572,468.332C244.469,470.52 247.875,473.914 249.776,477.99C251.64,483.846 251.043,490.755 247.72,495.99C243.501,500.998 237.047,504.894 230.282,503.986C225.011,503.711 219.285,501.775 216.405,497.042C213.023,490.958 211.325,482.902 215.246,476.651C217.648,472.743 220.397,467.783 225.525,467.412C230.509,466.982 235.803,466.516 240.572,468.332ZM291.441,549.93C293.318,553.934 294.226,558.297 295.015,562.624C286.863,563.233 278.855,561.488 270.907,560.006C262.517,558.201 253.385,557.269 246.238,552.13C244.588,545.687 244.588,538.444 246.895,532.157C248.102,528.596 252.238,528.428 255.381,528.273C264.154,528.094 272.939,528.07 281.712,528.333C286.194,534.954 287.939,542.831 291.441,549.93ZM708.559,549.93C712.061,542.831 713.806,534.954 718.288,528.333C727.061,528.07 735.846,528.094 744.619,528.273C747.762,528.428 751.898,528.596 753.105,532.157C755.412,538.444 755.412,545.687 753.762,552.13C746.615,557.269 737.483,558.201 729.093,560.006C721.145,561.488 713.137,563.233 704.985,562.624C705.774,558.297 706.682,553.934 708.559,549.93ZM343.027,161.471C319.577,165.869 296.425,171.714 273.286,177.487C267.214,179.076 261.561,182.124 255.226,182.734C254.688,174.582 254.497,166.347 255.369,158.22C255.835,155.841 256.003,152.925 258.25,151.479C269.234,144.188 282.62,142.921 294.955,139.144C309.31,136.251 324.011,135.857 338.533,134.495C350.031,132.582 366.315,131.382 377.825,129.637C391.353,127.477 459.045,123.431 500,124.35C540.955,123.431 608.647,127.477 622.175,129.637C633.685,131.382 649.969,132.582 661.467,134.495C675.989,135.857 690.69,136.251 705.045,139.144C717.38,142.921 730.766,144.188 741.75,151.479C743.997,152.925 744.165,155.841 744.631,158.22C745.503,166.347 745.312,174.582 744.774,182.734C738.439,182.124 732.786,179.076 726.714,177.487C703.575,171.714 680.423,165.869 656.973,161.471C649.802,160.849 642.666,159.917 635.638,158.387C634.037,158.046 632.426,157.786 630.809,157.578C621.2,156.142 600.616,153.616 580.136,152.001C556.42,150.131 532.826,149.622 527.04,149.483C519.766,149.308 507.464,149.496 500,149.312C492.536,149.496 480.234,149.307 472.96,149.483C467.174,149.622 443.58,150.131 419.864,152.001C399.384,153.616 378.8,156.142 369.191,157.578C367.574,157.786 365.963,158.046 364.362,158.387C357.334,159.917 350.198,160.849 343.027,161.471ZM469.825,646.686C470.662,643.1 474.833,643.1 477.762,643.029C513.618,643.172 549.499,642.981 585.356,643.1C588.996,643.112 590.603,647.475 589.73,650.475C588.571,653.511 585.093,654.371 582.356,655.375C563.878,660.981 545.567,667.112 527.124,672.838C524.041,673.794 519.236,675.546 519.559,678.598C519.906,681.883 524.073,685.012 526.528,688.983C527.714,690.9 528.048,692.937 526.599,694.806C525.792,695.846 519.595,695.702 516.081,695.738C484.192,695.583 452.315,695.63 420.427,695.714C417.331,695.654 412.389,695.2 411.252,693.959C409.656,692.217 409.59,689.58 411.305,687.866C413.217,685.954 416.028,684.73 418.538,683.929C432.977,679.853 447.128,674.834 461.507,670.555C466.156,669.001 471.009,667.686 475.168,664.997C476.901,664.005 477.547,661.59 476.1,660.061C473.566,655.925 467.829,652.232 469.825,646.686Z" style="fill:white;"/>
</svg>
